<svg preserveAspectRatio="xMidYMid meet" width="100%" height="100%" overflow="visible" style="display: block;" viewBox="0 0 16.56 23.0003" fill="none" xmlns="http://www.w3.org/2000/svg">
<g id="Group">
<path id="Vector" fill-rule="evenodd" clip-rule="evenodd" d="M14.72 11.96V20.93C14.72 22.044 14.595 22.465 14.026 22.838C13.456 23.211 12.685 22.861 12.108 22.581L12.014 22.531L10.956 21.971L8.244 20.425L5.604 21.972L4.546 22.532L4.452 22.582C3.875 22.862 3.103 23.211 2.534 22.838C1.965 22.465 1.84 22.044 1.84 20.93V11.96C4.04 13.212 6.175 13.838 8.244 13.838C10.313 13.838 12.472 13.212 14.72 11.96Z" fill="var(--fill-0, #9867D0)"/>
<path id="Vector_2" d="M8.28 16.56C12.8529 16.56 16.56 12.8529 16.56 8.28C16.56 3.70708 12.8529 0 8.28 0C3.70708 0 0 3.70708 0 8.28C0 12.8529 3.70708 16.56 8.28 16.56Z" fill="var(--fill-0, #E042CE)"/>
<path id="Vector_3" d="M8.28 12.88C10.8205 12.88 12.88 10.8205 12.88 8.28C12.88 5.73949 10.8205 3.68 8.28 3.68C5.73949 3.68 3.68 5.73949 3.68 8.28C3.68 10.8205 5.73949 12.88 8.28 12.88Z" stroke="var(--stroke-0, white)" stroke-opacity="0.75" stroke-width="1.84"/>
</g>
</svg>
