<svg preserveAspectRatio="xMidYMid meet" width="100%" height="100%" overflow="visible" style="display: block;" viewBox="0 0 24 23" fill="none" xmlns="http://www.w3.org/2000/svg">
<g id="Group">
<path id="Vector" d="M7.79 3C6.802 3 6 3.828 6 4.85V16.545C6 17.567 6.802 18.395 7.79 18.395H15L17.599 22.232C17.858 22.691 18.343 23 18.9 23C19.728 23 20.4 22.315 20.4 21.47V18.395H22.21C23.198 18.395 24 17.567 24 16.545V4.85C24 3.828 23.198 3 22.21 3H7.79Z" fill="var(--fill-0, #BB5A00)"/>
<path id="Vector_2" d="M18.01 0C19.11 0 20 0.874 20 1.952V14.3C20 15.378 19.11 16.252 18.01 16.252H10L6.706 20.392C6.51828 20.6458 6.25527 20.8339 5.95442 20.9296C5.65357 21.0252 5.33022 21.0235 5.0304 20.9247C4.73058 20.8258 4.46959 20.6349 4.28458 20.3791C4.09958 20.1233 3.99999 19.8157 4 19.5V16.252H1.99C0.89 16.252 0 15.378 0 14.3V1.952C0 0.874 0.89 0 1.99 0H18.01Z" fill="var(--fill-0, #E16C00)"/>
<path id="Vector_3" fill-rule="evenodd" clip-rule="evenodd" d="M12.897 11.219H4.635C4.39697 11.219 4.16869 11.1244 4.00037 10.9561C3.83206 10.7878 3.7375 10.5595 3.7375 10.3215C3.7375 10.0835 3.83206 9.85519 4.00037 9.68687C4.16869 9.51856 4.39697 9.424 4.635 9.424H12.897C13.135 9.424 13.3633 9.51856 13.5316 9.68687C13.6999 9.85519 13.7945 10.0835 13.7945 10.3215C13.7945 10.5595 13.6999 10.7878 13.5316 10.9561C13.3633 11.1244 13.135 11.219 12.897 11.219ZM15.712 6.641H4.635C4.39697 6.641 4.16869 6.54644 4.00037 6.37813C3.83206 6.20981 3.7375 5.98153 3.7375 5.7435C3.7375 5.50547 3.83206 5.27719 4.00037 5.10887C4.16869 4.94056 4.39697 4.846 4.635 4.846H15.712C15.95 4.846 16.1783 4.94056 16.3466 5.10887C16.5149 5.27719 16.6095 5.50547 16.6095 5.7435C16.6095 5.98153 16.5149 6.20981 16.3466 6.37813C16.1783 6.54644 15.95 6.641 15.712 6.641Z" fill="var(--fill-0, #FEFEFE)"/>
</g>
</svg>
