<svg preserveAspectRatio="xMidYMid meet" width="100%" height="100%" overflow="visible" style="display: block;" viewBox="0 0 20.354 22.654" fill="none" xmlns="http://www.w3.org/2000/svg">
<g id="Group">
<path id="Vector" d="M4.484 2.3H14.604C15.179 2.3 15.754 2.76 15.754 3.45V5.75C15.754 6.324 15.294 6.9 14.604 6.9H4.484V2.3Z" fill="var(--fill-0, #08A5AA)"/>
<path id="Vector_2" d="M4.484 15.754H14.604C15.179 15.754 15.754 16.214 15.754 16.904V19.204C15.754 19.779 15.294 20.354 14.604 20.354H4.484V15.754Z" fill="var(--fill-0, #049AA0)"/>
<path id="Vector_3" d="M4.484 9.084H19.204C19.779 9.084 20.354 9.544 20.354 10.234V12.534C20.354 13.109 19.894 13.684 19.204 13.684H4.484V9.084Z" fill="var(--fill-0, #08A5AA)"/>
<path id="Vector_4" d="M1.15 0C1.724 0 2.3 0.46 2.3 1.15V21.504C2.3 22.079 1.84 22.654 1.15 22.654C0.574 22.654 0 22.194 0 21.504V1.15C0 0.46 0.46 0 1.15 0Z" fill="var(--fill-0, #038C91)"/>
</g>
</svg>
