<svg preserveAspectRatio="xMidYMid meet" width="100%" height="100%" overflow="visible" style="display: block;" viewBox="0 0 24 23" fill="none" xmlns="http://www.w3.org/2000/svg">
<g id="Group">
<path id="Vector" d="M7.79 3C6.802 3 6 3.828 6 4.85V16.545C6 17.567 6.802 18.395 7.79 18.395H15L17.599 22.232C17.858 22.691 18.343 23 18.9 23C19.728 23 20.4 22.315 20.4 21.47V18.395H22.21C23.198 18.395 24 17.567 24 16.545V4.85C24 3.828 23.198 3 22.21 3H7.79Z" fill="var(--fill-0, #0260AA)"/>
<path id="Vector_2" d="M18.01 0C19.11 0 20 0.874 20 1.952V14.3C20 15.378 19.11 16.252 18.01 16.252H10L6.706 20.392C6.51828 20.6458 6.25527 20.8339 5.95442 20.9296C5.65357 21.0252 5.33022 21.0235 5.0304 20.9247C4.73058 20.8258 4.46959 20.6349 4.28458 20.3791C4.09958 20.1233 3.99999 19.8157 4 19.5V16.252H1.99C0.89 16.252 0 15.378 0 14.3V1.952C0 0.874 0.89 0 1.99 0H18.01Z" fill="var(--fill-0, #238BDE)"/>
<path id="Vector_3" fill-rule="evenodd" clip-rule="evenodd" d="M7.026 5.916C7.00521 5.83813 6.99677 5.75748 7.001 5.677C7.137 4.113 8.187 3 10.03 3C11.81 3 13 4.121 13 5.69C13 6.776 12.506 7.536 11.622 8.11C10.858 8.601 10.586 8.943 10.538 9.516C10.535 9.556 10.519 9.646 10.516 9.694C10.5094 9.75407 10.4935 9.81277 10.469 9.868C10.459 9.893 10.434 9.987 10.305 10.071C10.1607 10.1516 9.99829 10.1943 9.833 10.195C9.573 10.195 9.38 10.152 9.248 10.033C9.116 9.914 9.078 9.786 9.048 9.713C9.02202 9.64087 9.00915 9.56467 9.01 9.488C8.996 8.516 9.379 7.912 10.231 7.365C11.037 6.833 11.31 6.457 11.31 5.755C11.31 5.015 10.764 4.483 9.945 4.483C9.199 4.483 8.69 4.922 8.55 5.628C8.532 5.716 8.505 5.801 8.484 5.88C8.4399 5.99116 8.38031 6.09552 8.307 6.19C8.239 6.275 8.021 6.452 7.67 6.418C7.318 6.385 7.206 6.222 7.14 6.155C7.074 6.088 7.053 5.982 7.026 5.916ZM9.826 13C10.0912 13 10.3456 12.8946 10.5331 12.7071C10.7206 12.5196 10.826 12.2652 10.826 12C10.826 11.7348 10.7206 11.4804 10.5331 11.2929C10.3456 11.1054 10.0912 11 9.826 11C9.56078 11 9.30643 11.1054 9.11889 11.2929C8.93136 11.4804 8.826 11.7348 8.826 12C8.826 12.2652 8.93136 12.5196 9.11889 12.7071C9.30643 12.8946 9.56078 13 9.826 13Z" fill="var(--fill-0, white)"/>
</g>
</svg>
