<svg preserveAspectRatio="none" width="100%" height="100%" overflow="visible" style="display: block;" viewBox="0 0 11.8712 13.9869" fill="none" xmlns="http://www.w3.org/2000/svg">
<path id="Shape" d="M5.90994 0.916486C6.11911 0.395646 6.70506 -0.163836 7.4556 0.0447621C8.0459 0.208824 8.42937 0.565748 8.64853 1.04123C8.85281 1.48443 8.90297 2.0061 8.91253 2.50324C8.92281 3.038 8.81112 3.67957 8.67966 4.24068C8.61839 4.50222 8.55086 4.75433 8.48495 4.98096H9.86992C11.2048 4.98096 12.165 6.26366 11.7889 7.54443L10.4247 12.1905C10.0305 13.5329 8.61154 14.2905 7.27679 13.8713L1.92091 12.189C1.33391 12.0046 0.864444 11.5603 0.648038 10.9843L0.128045 9.60037C-0.213582 8.69113 0.147443 7.66789 0.984002 7.17435L2.85589 6.07C2.85962 6.06739 2.86502 6.06353 2.87204 6.05836C2.89261 6.04321 2.92704 6.01678 2.97335 5.97751C3.06593 5.89901 3.20628 5.76896 3.3785 5.57471C3.72255 5.18664 4.19641 4.53942 4.67065 3.5302C4.87552 3.09422 5.04787 2.7515 5.20441 2.44024C5.45743 1.93712 5.66911 1.51619 5.90994 0.916486ZM3.39446 6.91285C3.38878 6.9165 3.38305 6.92006 3.37724 6.92349L1.49213 8.03564C1.07385 8.28241 0.893336 8.79403 1.06415 9.24864L1.58414 10.6326C1.69235 10.9206 1.92708 11.1427 2.22058 11.2349L7.57646 12.9172C8.37731 13.1688 9.22871 12.7142 9.4652 11.9088L10.8294 7.2627C11.0174 6.62231 10.5373 5.98096 9.86992 5.98096H7.80087C7.63849 5.98096 7.48622 5.9021 7.39251 5.76948C7.29881 5.63686 7.27535 5.46699 7.3296 5.31393C7.42958 5.03185 7.58172 4.54315 7.70603 4.01257C7.83211 3.47442 7.92056 2.93025 7.91271 2.52247C7.90371 2.05416 7.85407 1.70651 7.74036 1.45983C7.64154 1.24543 7.48884 1.0919 7.18782 1.00824C7.14471 0.996262 7.09448 0.999759 7.02853 1.04305C6.95649 1.09035 6.88281 1.17734 6.83791 1.28915C6.58422 1.92088 6.34151 2.40473 6.07287 2.94027C5.91811 3.24881 5.75474 3.57449 5.5757 3.95549C5.06181 5.04911 4.53567 5.77689 4.12676 6.23811C3.92249 6.46851 3.74812 6.63167 3.62009 6.74023C3.55609 6.79449 3.50375 6.83505 3.46513 6.8635C3.44582 6.87772 3.42995 6.88892 3.41777 6.89728L3.4023 6.90772L3.39671 6.9114L3.39446 6.91285ZM2.85112 6.07334L2.84992 6.07413Z" fill="var(--fill-0, #323130)"/>
</svg>
