<svg font-size="28" width="1em" height="1em" viewBox="0 0 20 20" fill="none" xmlns="http://www.w3.org/2000/svg"><rect x="7.66699" y="4.75" width="7.58333" height="12.25" fill="white"></rect><path d="M16.44 3H3.56C3.25025 3 3 3.25025 3 3.56V16.44C3 16.7498 3.25025 17 3.56 17H16.44C16.7498 17 17 16.7498 17 16.44V3.56C17 3.25025 16.7498 3 16.44 3ZM14.823 7.08625H13.7048C12.828 7.08625 12.6583 7.50275 12.6583 8.11525V9.4645H14.7513L14.4783 11.5767H12.6583V17H10.476V11.5785H8.65075V9.4645H10.476V7.907C10.476 6.09925 11.5802 5.114 13.1938 5.114C13.9672 5.114 14.6305 5.17175 14.8247 5.198V7.08625H14.823Z" fill="#3B5998"></path></svg>