<svg font-size="28" width="1em" height="1em" viewBox="0 0 28 28" fill="none" xmlns="http://www.w3.org/2000/svg"><path d="M4.375 4.497C2.645 6.293 3 8.2 3 13.995c0 4.813-.84 9.637 3.555 10.773 1.372.353 13.53.353 14.9-.002 1.83-.472 3.32-1.956 3.523-4.544.028-.36.028-12.086-.001-12.454-.216-2.757-1.913-4.345-4.149-4.667-.512-.074-.615-.096-3.244-.101-9.325.005-11.37-.41-13.21 1.497Z" fill="url(#a)"></path><path d="M13.998 5.877c-3.328 0-6.489-.296-7.696 2.802-.499 1.28-.426 2.942-.426 5.322 0 2.088-.067 4.05.426 5.32 1.204 3.1 4.39 2.803 7.694 2.803 3.188 0 6.474.332 7.696-2.803.5-1.293.426-2.93.426-5.32 0-3.174.175-5.223-1.364-6.76-1.558-1.56-3.666-1.364-6.76-1.364h.004Zm-.727 1.464c6.942-.011 7.826-.783 7.338 9.94-.173 3.792-3.06 3.375-6.61 3.375-6.471 0-6.658-.185-6.658-6.66 0-6.549.514-6.651 5.93-6.657v.002Zm5.063 1.348a.975.975 0 1 0 0 1.95.975.975 0 0 0 0-1.95Zm-4.336 1.14A4.171 4.171 0 1 0 14 18.172a4.171 4.171 0 0 0-.002-8.343Zm0 1.464c3.58 0 3.585 5.415 0 5.415-3.578 0-3.584-5.415 0-5.415Z" fill="#fff"></path><defs><linearGradient id="a" x1="4.417" y1="23.595" x2="24.864" y2="5.899" gradientUnits="userSpaceOnUse"><stop stop-color="#FD5"></stop><stop offset="0.5" stop-color="#FF543E"></stop><stop offset="1" stop-color="#C837AB"></stop></linearGradient></defs></svg>