<svg font-size="28" width="1em" height="1em" viewBox="0 0 28 28" fill="none" xmlns="http://www.w3.org/2000/svg"><path fill="#fff" d="M4.833 4.834h18.333v18.333H4.833z"></path><path d="M21.745 21.745h-3.26V16.64c0-1.217-.021-2.784-1.695-2.784-1.698 0-1.958 1.326-1.958 2.696v5.193h-3.26V11.247h3.13v1.435h.044a3.43 3.43 0 0 1 3.087-1.696c3.304 0 3.913 2.173 3.913 5l-.001 5.76ZM7.895 9.812a1.892 1.892 0 1 1 0-3.783 1.892 1.892 0 0 1 0 3.783Zm1.63 11.933H6.26V11.247h3.263v10.498ZM23.37 3.002H4.623c-.886-.01-1.612.7-1.623 1.585v18.825c.01.887.737 1.597 1.623 1.588H23.37A1.61 1.61 0 0 0 25 23.412V4.586A1.609 1.609 0 0 0 23.37 3" fill="#0A66C2"></path></svg>