<svg font-size="28" width="1em" height="1em" viewBox="0 0 28 28" fill="none" xmlns="http://www.w3.org/2000/svg"><path d="M25 7.13a8.98 8.98 0 0 1-2.592.716 4.552 4.552 0 0 0 1.984-2.514 9.003 9.003 0 0 1-2.866 1.103A4.494 4.494 0 0 0 18.232 5c-2.493 0-4.514 2.035-4.514 4.544 0 .356.04.703.117 1.036-3.752-.19-7.077-1.999-9.304-4.748a4.547 4.547 0 0 0-.61 2.284A4.55 4.55 0 0 0 5.927 11.9a4.473 4.473 0 0 1-2.044-.569v.057a4.54 4.54 0 0 0 3.62 4.456 4.49 4.49 0 0 1-2.038.078 4.522 4.522 0 0 0 4.216 3.156A9.018 9.018 0 0 1 3 20.958 12.713 12.713 0 0 0 9.919 23c8.302 0 12.842-6.924 12.842-12.929 0-.197-.005-.393-.013-.588A9.208 9.208 0 0 0 25 7.131Z" fill="#55ACEE"></path></svg>