<svg font-size="28" width="1em" height="1em" viewBox="0 0 28 28" fill="none" xmlns="http://www.w3.org/2000/svg"><path d="M24.515 8.43a2.791 2.791 0 0 0-.715-1.242 2.76 2.76 0 0 0-1.233-.719C20.86 6 13.99 6 13.99 6s-6.871.014-8.579.483a2.761 2.761 0 0 0-1.233.72 2.79 2.79 0 0 0-.714 1.242c-.516 3.056-.716 7.712.014 10.646.127.47.373.898.714 1.242a2.76 2.76 0 0 0 1.233.72c1.708.469 8.579.469 8.579.469s6.871 0 8.578-.47a2.76 2.76 0 0 0 1.234-.719 2.79 2.79 0 0 0 .714-1.242c.544-3.06.712-7.714-.014-10.66Z" fill="red"></path><path d="m11.802 17.088 5.7-3.326-5.7-3.327v6.653Z" fill="#fff"></path></svg>